<?xml version="1.0" encoding="UTF-8"?>
<svg xmlns="http://www.w3.org/2000/svg" xmlns:xlink="http://www.w3.org/1999/xlink" width="48.1pt" height="48.1pt" viewBox="0 0 48.1 48.1" version="1.1">
<g id="surface1">
<path style=" stroke:none;fill-rule:evenodd;fill:rgb(10.594177%,9.812927%,9.423828%);fill-opacity:1;" d="M 12.28125 11.402344 L 35.867188 11.402344 C 37.089844 11.402344 38.203125 11.902344 39.007813 12.710938 L 39.011719 12.714844 C 39.816406 13.519531 40.316406 14.628906 40.316406 15.851563 L 40.316406 32.210938 C 40.316406 33.429688 39.816406 34.539063 39.011719 35.347656 L 39.011719 35.351563 C 38.207031 36.15625 37.09375 36.65625 35.867188 36.65625 L 12.28125 36.65625 C 11.058594 36.65625 9.945313 36.15625 9.140625 35.351563 L 9.140625 35.347656 C 8.332031 34.539063 7.832031 33.429688 7.832031 32.210938 L 7.832031 15.851563 C 7.832031 14.628906 8.332031 13.519531 9.140625 12.714844 L 9.144531 12.710938 C 9.949219 11.902344 11.0625 11.402344 12.28125 11.402344 Z M 35.867188 13.179688 L 12.28125 13.179688 C 11.546875 13.179688 10.878906 13.480469 10.394531 13.964844 C 9.910156 14.449219 9.613281 15.117188 9.613281 15.851563 L 9.613281 32.210938 C 9.613281 32.941406 9.910156 33.609375 10.394531 34.09375 L 10.398438 34.09375 C 10.882813 34.574219 11.550781 34.878906 12.28125 34.878906 L 35.867188 34.878906 C 36.601563 34.878906 37.269531 34.574219 37.753906 34.09375 L 37.757813 34.09375 C 38.238281 33.609375 38.539063 32.941406 38.539063 32.210938 L 38.539063 15.851563 C 38.539063 15.117188 38.238281 14.449219 37.757813 13.964844 C 37.273438 13.480469 36.601563 13.179688 35.867188 13.179688 Z M 14.875 14.988281 L 17.007813 14.988281 L 17.007813 28.78125 L 14.875 28.78125 Z M 31.140625 19.277344 L 33.273438 19.277344 L 33.273438 33.070313 L 31.140625 33.070313 Z M 25.714844 22.964844 L 27.28125 22.964844 C 28.0625 22.964844 28.777344 23.285156 29.296875 23.800781 C 29.816406 24.316406 30.136719 25.03125 30.136719 25.816406 L 30.136719 29.820313 C 30.136719 30.601563 29.816406 31.3125 29.296875 31.835938 L 29.292969 31.839844 C 28.777344 32.351563 28.0625 32.671875 27.28125 32.671875 L 14.019531 32.671875 C 13.234375 32.671875 12.519531 32.351563 12.003906 31.839844 L 12.003906 31.835938 C 11.484375 31.316406 11.164063 30.601563 11.164063 29.820313 L 11.164063 27.175781 L 13.300781 27.175781 L 13.300781 29.820313 C 13.300781 30.019531 13.378906 30.199219 13.507813 30.332031 L 13.511719 30.332031 C 13.640625 30.460938 13.820313 30.539063 14.019531 30.539063 L 27.28125 30.539063 C 27.480469 30.539063 27.660156 30.464844 27.789063 30.335938 L 27.792969 30.332031 C 27.921875 30.199219 28 30.019531 28 29.820313 L 28 25.816406 C 28 25.621094 27.917969 25.441406 27.789063 25.308594 L 27.789063 25.304688 C 27.660156 25.179688 27.480469 25.097656 27.28125 25.097656 L 20.867188 25.097656 C 20.085938 25.097656 19.371094 24.777344 18.851563 24.257813 C 18.335938 23.742188 18.011719 23.027344 18.011719 22.242188 L 18.011719 18.242188 C 18.011719 17.464844 18.332031 16.746094 18.851563 16.226563 L 18.855469 16.222656 C 19.375 15.710938 20.085938 15.386719 20.867188 15.386719 L 34.128906 15.386719 C 34.914063 15.386719 35.628906 15.710938 36.144531 16.222656 L 36.144531 16.226563 C 36.664063 16.746094 36.984375 17.460938 36.984375 18.242188 L 36.984375 20.882813 L 34.851563 20.882813 L 34.851563 18.242188 C 34.851563 18.039063 34.769531 17.859375 34.640625 17.734375 L 34.636719 17.734375 C 34.507813 17.601563 34.328125 17.519531 34.128906 17.519531 L 20.867188 17.519531 C 20.667969 17.519531 20.488281 17.601563 20.359375 17.730469 L 20.355469 17.734375 C 20.226563 17.859375 20.148438 18.039063 20.148438 18.238281 L 20.148438 22.242188 C 20.148438 22.4375 20.230469 22.621094 20.359375 22.753906 C 20.488281 22.882813 20.667969 22.964844 20.867188 22.964844 Z M 25.714844 22.964844 "/>
<path style="fill:none;stroke-width:1.001;stroke-linecap:butt;stroke-linejoin:miter;stroke:rgb(10.594177%,9.812927%,9.423828%);stroke-opacity:1;stroke-miterlimit:4;" d="M 0.742188 0.6875 L 480.742188 0.6875 L 480.742188 480.6875 L 0.742188 480.6875 Z M 0.742188 0.6875 " transform="matrix(0.1,0,0,-0.1,0,48.1)"/>
</g>
</svg>
